# xmcd
#
# Track frame offsets:
#	150
#	18939
#	36150
#	49389
#	71225
#	106155
#	129176
#	161010
#	181675
#	204399
#	250198
#	266315
#	288073
#	312751
#
# Disc length: 4478
#
# Revision: 7
# Processed by: cddbd v1.5.1PL0 Copyright (c) Steve Scherf et al.
# Submitted via: CDex 1.30Release
# Normalized: r5:TDELIM( - );r6:TRMNUM
#
DISCID=b6117c0e
DTITLE=Muddy Waters - Mojo
DYEAR=1900
DGENRE=Blues
TTITLE0=Rollin' And Tumblin'
TTITLE1=Walkin' Blues
TTITLE2=Hoochie Coochie Man
TTITLE3=Can't Get No Grindin'
TTITLE4=Howlin' Wolf
TTITLE5=Dust My Broom
TTITLE6=Goin' Down Slow
TTITLE7=Walking Thru The Park
TTITLE8=Just To Be With You
TTITLE9=She's Nineteen Years Old
TTITLE10=Crawlin' King Snake
TTITLE11=Honey Bee
TTITLE12=Mannish Boy
TTITLE13=Got My Mojo Working 1&2
EXTD=ID3G:   0
EXTT0=
EXTT1=
EXTT2=
EXTT3=
EXTT4=
EXTT5=
EXTT6=
EXTT7=
EXTT8=
EXTT9=
EXTT10=
EXTT11=
EXTT12=
EXTT13=
PLAYORDER=
